<svg width="19" height="23" viewBox="0 0 19 23" fill="none" xmlns="http://www.w3.org/2000/svg">
<g clip-path="url(#clip0_586_145)">
<path d="M12.7108 11.3268C14.3624 10.2787 15.4605 8.45984 15.4605 6.3811C15.4605 3.14173 12.7811 0.5 9.4956 0.5C6.2101 0.5 3.53074 3.14173 3.53074 6.3811C3.53074 8.45984 4.62884 10.2787 6.28038 11.3268C2.89824 12.6087 0.491211 15.8394 0.491211 19.6157C0.491211 21.2094 1.80893 22.5 3.41654 22.5H15.5571C17.1735 22.5 18.4824 21.2008 18.4824 19.6157C18.4824 15.8394 16.0754 12.6087 12.6933 11.3268H12.7108ZM5.07686 6.3811C5.07686 3.97323 7.06222 2.01575 9.50439 2.01575C11.9466 2.01575 13.9319 3.97323 13.9319 6.3811C13.9319 8.78898 11.9466 10.7465 9.50439 10.7465C7.06222 10.7465 5.07686 8.78898 5.07686 6.3811ZM15.5659 20.9843H3.42532C2.66105 20.9843 2.03733 20.3693 2.03733 19.6157C2.03733 15.5622 5.38433 12.2622 9.4956 12.2622C13.6069 12.2622 16.9539 15.5622 16.9539 19.6157C16.9539 20.3693 16.3302 20.9843 15.5659 20.9843Z" fill="#878787"/>
</g>
<defs>
<clipPath id="clip0_586_145">
<rect width="18" height="22" fill="white" transform="translate(0.5 0.5)"/>
</clipPath>
</defs>
</svg>
