<svg width="21" height="16" viewBox="0 0 21 16" fill="none" xmlns="http://www.w3.org/2000/svg">
<g clip-path="url(#clip0_500_502)">
<path d="M5.94007 12.005L5.34007 12.605C5.60007 12.725 5.87007 12.835 6.14007 12.935L6.76007 12.315C6.48007 12.225 6.21007 12.115 5.94007 12.005ZM20.3601 7.835C19.5501 6.075 18.0601 4.625 16.1801 3.645L15.5901 4.235C17.3601 5.095 18.7801 6.405 19.5601 8.005C18.1101 10.945 14.5101 12.915 10.5301 12.915H10.5101C9.41007 12.915 8.34007 12.765 7.34007 12.485L6.70007 13.125C7.90007 13.505 9.18007 13.705 10.5101 13.705H10.5301C14.8901 13.705 18.8401 11.475 20.3701 8.165L20.4501 7.995L20.3701 7.825L20.3601 7.835ZM10.5001 2.295H10.4801C6.12007 2.295 2.17007 4.525 0.650068 7.835L0.570068 8.005L0.650068 8.175C1.46007 9.935 2.96007 11.385 4.83007 12.365L5.42007 11.775C3.65007 10.915 2.23007 9.605 1.45007 8.005C2.90007 5.065 6.50007 3.095 10.4801 3.095H10.5001C11.6001 3.095 12.6701 3.245 13.6701 3.525L14.3101 2.885C13.1101 2.505 11.8301 2.305 10.5001 2.305V2.295ZM14.8701 3.065L14.2501 3.685C14.5301 3.775 14.8001 3.885 15.0701 3.995L15.6701 3.395C15.4101 3.275 15.1401 3.165 14.8701 3.065Z" fill="#878787"/>
<path d="M13.1601 4.775L12.5901 5.345C12.8001 5.505 12.9901 5.695 13.1501 5.905L13.7201 5.335C13.5501 5.125 13.3601 4.945 13.1601 4.775ZM7.84006 10.095L7.27006 10.665C7.44006 10.865 7.63006 11.055 7.83006 11.225L8.40006 10.655C8.19006 10.495 8.00006 10.305 7.84006 10.095ZM14.0401 5.775L13.4601 6.355C13.7301 6.845 13.8901 7.405 13.8901 8.005C13.8901 9.875 12.3701 11.395 10.5001 11.395C9.90006 11.395 9.34006 11.235 8.85006 10.965L8.27006 11.545C8.92006 11.955 9.68006 12.185 10.5001 12.185C12.8101 12.185 14.6901 10.305 14.6901 7.995C14.6901 7.175 14.4501 6.415 14.0501 5.765L14.0401 5.775ZM10.5001 3.815C8.19006 3.815 6.31006 5.695 6.31006 7.995C6.31006 8.815 6.55006 9.575 6.95006 10.225L7.53006 9.645C7.26006 9.155 7.10006 8.595 7.10006 7.995C7.10006 6.125 8.62006 4.605 10.4901 4.605C11.0901 4.605 11.6501 4.765 12.1401 5.035L12.7201 4.455C12.0701 4.045 11.3101 3.815 10.4901 3.815H10.5001ZM13.1601 4.775L12.5901 5.345C12.8001 5.505 12.9901 5.695 13.1501 5.905L13.7201 5.335C13.5501 5.125 13.3601 4.945 13.1601 4.775Z" fill="#878787"/>
<path d="M17.5301 1.535L15.6701 3.395L15.0701 3.995L13.7301 5.335L13.1601 5.905L8.4001 10.665L7.8301 11.235L6.7501 12.315L6.1301 12.935L4.0301 15.035C3.9501 15.115 3.8501 15.155 3.7501 15.155C3.6501 15.155 3.5501 15.115 3.4701 15.035C3.3101 14.875 3.3101 14.625 3.4701 14.475L5.3301 12.615L5.9301 12.015L7.8301 10.115L12.5901 5.355L16.9701 0.974996C17.0501 0.894996 17.1501 0.854996 17.2501 0.854996C17.3501 0.854996 17.4501 0.894996 17.5301 0.974996C17.6901 1.135 17.6901 1.385 17.5301 1.535Z" fill="#878787"/>
</g>
<defs>
<clipPath id="clip0_500_502">
<rect width="19.86" height="14.29" fill="white" transform="translate(0.570068 0.854996)"/>
</clipPath>
</defs>
</svg>
