<svg width="17" height="20" viewBox="0 0 17 20" fill="none" xmlns="http://www.w3.org/2000/svg">
<path d="M11.202 9.85274C12.5861 8.96192 13.5064 7.41586 13.5064 5.64893C13.5064 2.89546 11.2609 0.649994 8.50744 0.649994C5.75397 0.649994 3.5085 2.89546 3.5085 5.64893C3.5085 7.41586 4.42878 8.96192 5.81287 9.85274C2.97842 10.9423 0.961182 13.6884 0.961182 16.8984C0.961182 18.253 2.06551 19.35 3.41279 19.35H13.5874C14.942 19.35 16.039 18.2457 16.039 16.8984C16.039 13.6884 14.0217 10.9423 11.1873 9.85274H11.202ZM4.80425 5.64893C4.80425 3.60224 6.46811 1.93838 8.5148 1.93838C10.5615 1.93838 12.2253 3.60224 12.2253 5.64893C12.2253 7.69562 10.5615 9.35948 8.5148 9.35948C6.46811 9.35948 4.80425 7.69562 4.80425 5.64893ZM13.5947 18.0616H3.42016C2.77964 18.0616 2.25693 17.5389 2.25693 16.8984C2.25693 13.4529 5.06193 10.6479 8.50744 10.6479C11.9529 10.6479 14.7579 13.4529 14.7579 16.8984C14.7579 17.5389 14.2352 18.0616 13.5947 18.0616Z" fill="#878787"/>
</svg>
