<svg width="19" height="14" viewBox="0 0 19 14" fill="none" xmlns="http://www.w3.org/2000/svg">
<g clip-path="url(#clip0_500_518)">
<path d="M15.7551 0.0899963H3.24508C1.84508 0.0899963 0.705078 1.23 0.705078 2.63V11.37C0.705078 12.77 1.84508 13.91 3.24508 13.91H15.7551C17.1551 13.91 18.2951 12.77 18.2951 11.37V2.63C18.2951 1.23 17.1551 0.0899963 15.7551 0.0899963ZM15.7551 1.3C15.8551 1.3 15.9551 1.31 16.0551 1.34L10.7751 7.33C10.4551 7.7 9.98508 7.91 9.49508 7.91C9.00508 7.91 8.53508 7.7 8.21508 7.33L2.94508 1.34C3.04508 1.32 3.14508 1.3 3.24508 1.3H15.7551ZM17.0851 11.37C17.0851 12.1 16.4951 12.7 15.7551 12.7H3.24508C2.51508 12.7 1.91508 12.11 1.91508 11.37V2.63C1.91508 2.45 1.95508 2.28 2.01508 2.13L7.30508 8.14C7.85508 8.77 8.65508 9.13 9.49508 9.13C10.3351 9.13 11.1351 8.77 11.6851 8.14L16.9751 2.13C17.0351 2.29 17.0751 2.45 17.0751 2.63V11.37H17.0851Z" fill="#878787"/>
</g>
<defs>
<clipPath id="clip0_500_518">
<rect width="17.59" height="13.82" fill="white" transform="translate(0.705078 0.0899963)"/>
</clipPath>
</defs>
</svg>
