<svg width="25" height="25" viewBox="0 0 25 25" fill="none" xmlns="http://www.w3.org/2000/svg">
<g clip-path="url(#clip0_586_135)">
<path d="M12.5 22.9167C13.6 22.9167 14.5 21.9792 14.5 20.8333H10.5C10.5 21.9792 11.4 22.9167 12.5 22.9167ZM18.5 16.6667V11.4583C18.5 8.26042 16.87 5.58333 14 4.875V4.16667C14 3.30208 13.33 2.60417 12.5 2.60417C11.67 2.60417 11 3.30208 11 4.16667V4.875C8.14 5.58333 6.5 8.25 6.5 11.4583V16.6667L4.5 18.75V19.7917H20.5V18.75L18.5 16.6667ZM16.5 17.7083H8.5V11.4583C8.5 8.875 10.01 6.77083 12.5 6.77083C14.99 6.77083 16.5 8.875 16.5 11.4583V17.7083Z" fill="#878787"/>
</g>
<defs>
<clipPath id="clip0_586_135">
<rect width="24" height="25" fill="white" transform="translate(0.5)"/>
</clipPath>
</defs>
</svg>
