<svg width="21" height="21" viewBox="0 0 21 21" fill="none" xmlns="http://www.w3.org/2000/svg">
<g clip-path="url(#clip0_586_140)">
<path d="M20.8261 10.042L13.0627 1.16346C12.4178 0.429077 11.4836 0 10.4997 0C9.51585 0 8.5816 0.420825 7.93672 1.16346L0.181598 10.042C-0.00855901 10.2566 -0.0498976 10.5619 0.0658504 10.8177C0.181598 11.0735 0.437898 11.2385 0.727268 11.2385H2.05837V20.2739C2.05837 20.6699 2.38081 21 2.78593 21H18.2383C18.6351 21 18.9659 20.6782 18.9659 20.2739V11.2385H20.297C20.5781 11.2385 20.8426 11.0735 20.9584 10.8177C21.0741 10.5619 21.0328 10.2566 20.8426 10.042H20.8261ZM9.03632 2.11238C9.40837 1.69155 9.9375 1.44401 10.508 1.44401C11.0784 1.44401 11.6076 1.6833 11.9714 2.11238L18.6847 9.7945H2.31467L9.03632 2.11238ZM17.5025 19.5477H3.50522V11.2385H17.5025V19.5477Z" fill="#878787"/>
</g>
<defs>
<clipPath id="clip0_586_140">
<rect width="21" height="21" fill="white"/>
</clipPath>
</defs>
</svg>
