<?xml version="1.0" encoding="UTF-8"?>
<svg id="Capa_2" data-name="Capa 2" xmlns="http://www.w3.org/2000/svg" xmlns:xlink="http://www.w3.org/1999/xlink" viewBox="0 0 152.97 180.44">
  <defs>
    <style>
      .cls-1 {
        fill: url(#Degradado_sin_nombre_48-51);
      }

      .cls-1, .cls-2, .cls-3, .cls-4, .cls-5, .cls-6, .cls-7, .cls-8, .cls-9, .cls-10, .cls-11, .cls-12, .cls-13, .cls-14, .cls-15, .cls-16, .cls-17, .cls-18, .cls-19, .cls-20, .cls-21, .cls-22, .cls-23, .cls-24, .cls-25, .cls-26, .cls-27, .cls-28, .cls-29, .cls-30, .cls-31, .cls-32, .cls-33, .cls-34, .cls-35, .cls-36, .cls-37, .cls-38, .cls-39, .cls-40, .cls-41, .cls-42, .cls-43, .cls-44, .cls-45, .cls-46, .cls-47, .cls-48, .cls-49, .cls-50, .cls-51, .cls-52, .cls-53, .cls-54, .cls-55, .cls-56, .cls-57, .cls-58, .cls-59, .cls-60, .cls-61, .cls-62, .cls-63, .cls-64 {
        stroke-width: 0px;
      }

      .cls-2 {
        fill: url(#Degradado_sin_nombre_48-60);
      }

      .cls-3 {
        fill: url(#Degradado_sin_nombre_48-55);
      }

      .cls-4 {
        fill: url(#Degradado_sin_nombre_48-62);
      }

      .cls-5 {
        fill: url(#Degradado_sin_nombre_48-15);
      }

      .cls-6 {
        fill: url(#Degradado_sin_nombre_48);
      }

      .cls-7 {
        fill: url(#Degradado_sin_nombre_48-7);
      }

      .cls-8 {
        fill: url(#Degradado_sin_nombre_48-45);
      }

      .cls-9 {
        fill: url(#Degradado_sin_nombre_48-12);
      }

      .cls-10 {
        fill: url(#Degradado_sin_nombre_48-59);
      }

      .cls-11 {
        fill: url(#Degradado_sin_nombre_48-23);
      }

      .cls-12 {
        fill: url(#Degradado_sin_nombre_48-14);
      }

      .cls-13 {
        fill: url(#Degradado_sin_nombre_48-30);
      }

      .cls-14 {
        fill: url(#Degradado_sin_nombre_48-40);
      }

      .cls-15 {
        fill: url(#Degradado_sin_nombre_48-38);
      }

      .cls-16 {
        fill: url(#Degradado_sin_nombre_48-33);
      }

      .cls-17 {
        fill: url(#Degradado_sin_nombre_48-32);
      }

      .cls-18 {
        fill: url(#Degradado_sin_nombre_48-35);
      }

      .cls-19 {
        fill: url(#Degradado_sin_nombre_48-3);
      }

      .cls-20 {
        fill: url(#Degradado_sin_nombre_48-26);
      }

      .cls-21 {
        fill: url(#Degradado_sin_nombre_48-16);
      }

      .cls-22 {
        fill: url(#Degradado_sin_nombre_48-57);
      }

      .cls-23 {
        fill: url(#Degradado_sin_nombre_48-4);
      }

      .cls-24 {
        fill: url(#Degradado_sin_nombre_48-54);
      }

      .cls-25 {
        fill: url(#Degradado_sin_nombre_48-6);
      }

      .cls-26 {
        fill: url(#Degradado_sin_nombre_48-34);
      }

      .cls-27 {
        fill: url(#Degradado_sin_nombre_48-43);
      }

      .cls-28 {
        fill: url(#Degradado_sin_nombre_48-42);
      }

      .cls-29 {
        fill: url(#Degradado_sin_nombre_48-9);
      }

      .cls-30 {
        fill: url(#Degradado_sin_nombre_48-37);
      }

      .cls-31 {
        fill: url(#Degradado_sin_nombre_48-25);
      }

      .cls-32 {
        fill: url(#Degradado_sin_nombre_48-61);
      }

      .cls-33 {
        fill: url(#Degradado_sin_nombre_48-39);
      }

      .cls-34 {
        fill: url(#Degradado_sin_nombre_48-21);
      }

      .cls-35 {
        fill: url(#Degradado_sin_nombre_48-27);
      }

      .cls-36 {
        fill: url(#Degradado_sin_nombre_48-29);
      }

      .cls-37 {
        fill: url(#Degradado_sin_nombre_48-8);
      }

      .cls-38 {
        fill: url(#Degradado_sin_nombre_48-58);
      }

      .cls-39 {
        fill: url(#Degradado_sin_nombre_48-36);
      }

      .cls-40 {
        fill: url(#Degradado_sin_nombre_48-10);
      }

      .cls-41 {
        fill: url(#Degradado_sin_nombre_48-5);
      }

      .cls-42 {
        fill: url(#Degradado_sin_nombre_48-52);
      }

      .cls-43 {
        fill: url(#Degradado_sin_nombre_48-28);
      }

      .cls-44 {
        fill: url(#Degradado_sin_nombre_48-22);
      }

      .cls-45 {
        fill: url(#Degradado_sin_nombre_48-63);
      }

      .cls-46 {
        fill: url(#Degradado_sin_nombre_48-20);
      }

      .cls-47 {
        fill: url(#Degradado_sin_nombre_48-47);
      }

      .cls-48 {
        fill: url(#Degradado_sin_nombre_48-49);
      }

      .cls-49 {
        fill: url(#Degradado_sin_nombre_48-19);
      }

      .cls-50 {
        fill: url(#Degradado_sin_nombre_48-56);
      }

      .cls-51 {
        fill: url(#Degradado_sin_nombre_48-31);
      }

      .cls-52 {
        fill: url(#Degradado_sin_nombre_48-17);
      }

      .cls-53 {
        fill: url(#Degradado_sin_nombre_48-50);
      }

      .cls-54 {
        fill: url(#Degradado_sin_nombre_48-24);
      }

      .cls-55 {
        fill: url(#Degradado_sin_nombre_48-64);
      }

      .cls-56 {
        fill: url(#Degradado_sin_nombre_48-2);
      }

      .cls-57 {
        fill: url(#Degradado_sin_nombre_48-18);
      }

      .cls-58 {
        fill: url(#Degradado_sin_nombre_48-41);
      }

      .cls-59 {
        fill: url(#Degradado_sin_nombre_48-53);
      }

      .cls-60 {
        fill: url(#Degradado_sin_nombre_48-48);
      }

      .cls-61 {
        fill: url(#Degradado_sin_nombre_48-46);
      }

      .cls-62 {
        fill: url(#Degradado_sin_nombre_48-13);
      }

      .cls-63 {
        fill: url(#Degradado_sin_nombre_48-11);
      }

      .cls-64 {
        fill: url(#Degradado_sin_nombre_48-44);
      }
    </style>
    <linearGradient id="Degradado_sin_nombre_48" data-name="Degradado sin nombre 48" x1="9.14" y1="73.08" x2="145.88" y2="73.08" gradientUnits="userSpaceOnUse">
      <stop offset="0" stop-color="#0f9bf2"/>
      <stop offset=".02" stop-color="#0e99f1"/>
      <stop offset=".22" stop-color="#0c8bf1"/>
      <stop offset=".39" stop-color="#0c87f1"/>
      <stop offset=".51" stop-color="#0c8ef1"/>
      <stop offset=".67" stop-color="#0ea1f1"/>
      <stop offset=".87" stop-color="#10c2f1"/>
      <stop offset="1" stop-color="#13dbf2"/>
    </linearGradient>
    <linearGradient id="Degradado_sin_nombre_48-2" data-name="Degradado sin nombre 48" x1="36.87" y1="73.08" x2="118.42" y2="73.08" xlink:href="#Degradado_sin_nombre_48"/>
    <linearGradient id="Degradado_sin_nombre_48-3" data-name="Degradado sin nombre 48" x1="9.28" y1="68.56" x2="145.72" y2="68.56" xlink:href="#Degradado_sin_nombre_48"/>
    <linearGradient id="Degradado_sin_nombre_48-4" data-name="Degradado sin nombre 48" x1="30.83" y1="75.61" x2="43.37" y2="75.61" xlink:href="#Degradado_sin_nombre_48"/>
    <linearGradient id="Degradado_sin_nombre_48-5" data-name="Degradado sin nombre 48" x1="19.5" y1="109.22" x2="32.04" y2="109.22" xlink:href="#Degradado_sin_nombre_48"/>
    <linearGradient id="Degradado_sin_nombre_48-6" data-name="Degradado sin nombre 48" x1="13.07" y1="80.66" x2="21.93" y2="80.66" xlink:href="#Degradado_sin_nombre_48"/>
    <linearGradient id="Degradado_sin_nombre_48-7" data-name="Degradado sin nombre 48" x1="38.94" y1="114.96" x2="47.8" y2="114.96" xlink:href="#Degradado_sin_nombre_48"/>
    <linearGradient id="Degradado_sin_nombre_48-8" data-name="Degradado sin nombre 48" x1="56.57" y1="141.23" x2="62.97" y2="141.23" xlink:href="#Degradado_sin_nombre_48"/>
    <linearGradient id="Degradado_sin_nombre_48-9" data-name="Degradado sin nombre 48" x1="73.69" y1="114.11" x2="86.22" y2="114.11" xlink:href="#Degradado_sin_nombre_48"/>
    <linearGradient id="Degradado_sin_nombre_48-10" data-name="Degradado sin nombre 48" x1="106.76" y1="125.66" x2="119.3" y2="125.66" xlink:href="#Degradado_sin_nombre_48"/>
    <linearGradient id="Degradado_sin_nombre_48-11" data-name="Degradado sin nombre 48" x1="80.77" y1="133.3" x2="90.01" y2="133.3" xlink:href="#Degradado_sin_nombre_48"/>
    <linearGradient id="Degradado_sin_nombre_48-12" data-name="Degradado sin nombre 48" x1="114.11" y1="108.59" x2="123.36" y2="108.59" xlink:href="#Degradado_sin_nombre_48"/>
    <linearGradient id="Degradado_sin_nombre_48-13" data-name="Degradado sin nombre 48" x1="142.91" y1="91.48" x2="149.45" y2="91.48" xlink:href="#Degradado_sin_nombre_48"/>
    <linearGradient id="Degradado_sin_nombre_48-14" data-name="Degradado sin nombre 48" x1="137.83" y1="79.61" x2="144.36" y2="79.61" xlink:href="#Degradado_sin_nombre_48"/>
    <linearGradient id="Degradado_sin_nombre_48-15" data-name="Degradado sin nombre 48" x1="22.5" y1="58.91" x2="29.04" y2="58.91" xlink:href="#Degradado_sin_nombre_48"/>
    <linearGradient id="Degradado_sin_nombre_48-16" data-name="Degradado sin nombre 48" x1="130.55" y1="26.4" x2="137.09" y2="26.4" xlink:href="#Degradado_sin_nombre_48"/>
    <linearGradient id="Degradado_sin_nombre_48-17" data-name="Degradado sin nombre 48" x1="141.98" y1="37.65" x2="146.6" y2="37.65" xlink:href="#Degradado_sin_nombre_48"/>
    <linearGradient id="Degradado_sin_nombre_48-18" data-name="Degradado sin nombre 48" x1="41.06" y1="7.85" x2="45.68" y2="7.85" xlink:href="#Degradado_sin_nombre_48"/>
    <linearGradient id="Degradado_sin_nombre_48-19" data-name="Degradado sin nombre 48" x1="10.76" y1="109.22" x2="15.38" y2="109.22" xlink:href="#Degradado_sin_nombre_48"/>
    <linearGradient id="Degradado_sin_nombre_48-20" data-name="Degradado sin nombre 48" x1="110.86" y1="140.18" x2="115.48" y2="140.18" xlink:href="#Degradado_sin_nombre_48"/>
    <linearGradient id="Degradado_sin_nombre_48-21" data-name="Degradado sin nombre 48" x1="103.61" y1="143.85" x2="109.92" y2="143.85" xlink:href="#Degradado_sin_nombre_48"/>
    <linearGradient id="Degradado_sin_nombre_48-22" data-name="Degradado sin nombre 48" x1="27.68" y1="18.37" x2="33.99" y2="18.37" xlink:href="#Degradado_sin_nombre_48"/>
    <linearGradient id="Degradado_sin_nombre_48-23" data-name="Degradado sin nombre 48" x1="121.82" y1="129.63" x2="128.13" y2="129.63" xlink:href="#Degradado_sin_nombre_48"/>
    <linearGradient id="Degradado_sin_nombre_48-24" data-name="Degradado sin nombre 48" x1="127.28" y1="88.21" x2="133.82" y2="88.21" xlink:href="#Degradado_sin_nombre_48"/>
    <linearGradient id="Degradado_sin_nombre_48-25" data-name="Degradado sin nombre 48" x1="98.31" y1="108.06" x2="103.76" y2="108.06" xlink:href="#Degradado_sin_nombre_48"/>
    <linearGradient id="Degradado_sin_nombre_48-26" data-name="Degradado sin nombre 48" x1="107.19" y1="97.75" x2="112.65" y2="97.75" xlink:href="#Degradado_sin_nombre_48"/>
    <linearGradient id="Degradado_sin_nombre_48-27" data-name="Degradado sin nombre 48" x1="132.54" y1="118.23" x2="139.08" y2="118.23" xlink:href="#Degradado_sin_nombre_48"/>
    <linearGradient id="Degradado_sin_nombre_48-28" data-name="Degradado sin nombre 48" x1="81.29" y1="10.57" x2="86.74" y2="10.57" xlink:href="#Degradado_sin_nombre_48"/>
    <linearGradient id="Degradado_sin_nombre_48-29" data-name="Degradado sin nombre 48" x1="3.52" y1="102.95" x2="8.97" y2="102.95" xlink:href="#Degradado_sin_nombre_48"/>
    <linearGradient id="Degradado_sin_nombre_48-30" data-name="Degradado sin nombre 48" x1="89.86" y1="21.46" x2="95.32" y2="21.46" xlink:href="#Degradado_sin_nombre_48"/>
    <linearGradient id="Degradado_sin_nombre_48-31" data-name="Degradado sin nombre 48" x1="143.46" y1="52.91" x2="148.91" y2="52.91" xlink:href="#Degradado_sin_nombre_48"/>
    <linearGradient id="Degradado_sin_nombre_48-32" data-name="Degradado sin nombre 48" x1="99.88" y1="41.66" x2="105.33" y2="41.66" xlink:href="#Degradado_sin_nombre_48"/>
    <linearGradient id="Degradado_sin_nombre_48-33" data-name="Degradado sin nombre 48" x1="110.3" y1="51.23" x2="115.76" y2="51.23" xlink:href="#Degradado_sin_nombre_48"/>
    <linearGradient id="Degradado_sin_nombre_48-34" data-name="Degradado sin nombre 48" x1="118.67" y1="16.4" x2="124.12" y2="16.4" xlink:href="#Degradado_sin_nombre_48"/>
    <linearGradient id="Degradado_sin_nombre_48-35" data-name="Degradado sin nombre 48" x1="46.09" y1="2.73" x2="51.55" y2="2.73" xlink:href="#Degradado_sin_nombre_48"/>
    <linearGradient id="Degradado_sin_nombre_48-36" data-name="Degradado sin nombre 48" x1="17.3" y1="30.17" x2="22.75" y2="30.17" xlink:href="#Degradado_sin_nombre_48"/>
    <linearGradient id="Degradado_sin_nombre_48-37" data-name="Degradado sin nombre 48" x1="11.85" y1="67.81" x2="17.3" y2="67.81" xlink:href="#Degradado_sin_nombre_48"/>
    <linearGradient id="Degradado_sin_nombre_48-38" data-name="Degradado sin nombre 48" x1="6.63" y1="94.82" x2="12.09" y2="94.82" xlink:href="#Degradado_sin_nombre_48"/>
    <linearGradient id="Degradado_sin_nombre_48-39" data-name="Degradado sin nombre 48" x1="40.64" y1="96.2" x2="46.09" y2="96.2" xlink:href="#Degradado_sin_nombre_48"/>
    <linearGradient id="Degradado_sin_nombre_48-40" data-name="Degradado sin nombre 48" x1="51.12" y1="105.86" x2="56.57" y2="105.86" xlink:href="#Degradado_sin_nombre_48"/>
    <linearGradient id="Degradado_sin_nombre_48-41" data-name="Degradado sin nombre 48" x1="60.25" y1="125.76" x2="65.7" y2="125.76" xlink:href="#Degradado_sin_nombre_48"/>
    <linearGradient id="Degradado_sin_nombre_48-42" data-name="Degradado sin nombre 48" x1="68.62" y1="136.63" x2="74.08" y2="136.63" xlink:href="#Degradado_sin_nombre_48"/>
    <linearGradient id="Degradado_sin_nombre_48-43" data-name="Degradado sin nombre 48" x1="96.79" y1="140.7" x2="102.24" y2="140.7" xlink:href="#Degradado_sin_nombre_48"/>
    <linearGradient id="Degradado_sin_nombre_48-44" data-name="Degradado sin nombre 48" x1="43.37" y1="48.79" x2="48.82" y2="48.79" xlink:href="#Degradado_sin_nombre_48"/>
    <linearGradient id="Degradado_sin_nombre_48-45" data-name="Degradado sin nombre 48" x1="52.3" y1="38.93" x2="57.75" y2="38.93" xlink:href="#Degradado_sin_nombre_48"/>
    <linearGradient id="Degradado_sin_nombre_48-46" data-name="Degradado sin nombre 48" x1="18.1" y1="120.37" x2="25.77" y2="120.37" xlink:href="#Degradado_sin_nombre_48"/>
    <linearGradient id="Degradado_sin_nombre_48-47" data-name="Degradado sin nombre 48" x1="112.96" y1="71.63" x2="125.5" y2="71.63" xlink:href="#Degradado_sin_nombre_48"/>
    <linearGradient id="Degradado_sin_nombre_48-48" data-name="Degradado sin nombre 48" x1="69.4" y1="32.67" x2="81.93" y2="32.67" xlink:href="#Degradado_sin_nombre_48"/>
    <linearGradient id="Degradado_sin_nombre_48-49" data-name="Degradado sin nombre 48" x1="123.28" y1="38.93" x2="135.81" y2="38.93" xlink:href="#Degradado_sin_nombre_48"/>
    <linearGradient id="Degradado_sin_nombre_48-50" data-name="Degradado sin nombre 48" x1="133.56" y1="66.81" x2="142.1" y2="66.81" xlink:href="#Degradado_sin_nombre_48"/>
    <linearGradient id="Degradado_sin_nombre_48-51" data-name="Degradado sin nombre 48" x1="37.1" y1="21.46" x2="49.63" y2="21.46" xlink:href="#Degradado_sin_nombre_48"/>
    <linearGradient id="Degradado_sin_nombre_48-52" data-name="Degradado sin nombre 48" x1="32.04" y1="38.93" x2="40.66" y2="38.93" xlink:href="#Degradado_sin_nombre_48"/>
    <linearGradient id="Degradado_sin_nombre_48-53" data-name="Degradado sin nombre 48" x1="6.24" y1="54.94" x2="13.09" y2="54.94" xlink:href="#Degradado_sin_nombre_48"/>
    <linearGradient id="Degradado_sin_nombre_48-54" data-name="Degradado sin nombre 48" x1="65.74" y1="13.86" x2="74.79" y2="13.86" xlink:href="#Degradado_sin_nombre_48"/>
    <linearGradient id="Degradado_sin_nombre_48-55" data-name="Degradado sin nombre 48" x1="92.59" y1="5.68" x2="99.52" y2="5.68" xlink:href="#Degradado_sin_nombre_48"/>
    <linearGradient id="Degradado_sin_nombre_48-56" data-name="Degradado sin nombre 48" x1="54.29" y1="5.68" x2="61.22" y2="5.68" xlink:href="#Degradado_sin_nombre_48"/>
    <linearGradient id="Degradado_sin_nombre_48-57" data-name="Degradado sin nombre 48" x1="108.53" y1="32.67" x2="117.39" y2="32.67" xlink:href="#Degradado_sin_nombre_48"/>
    <linearGradient id="Degradado_sin_nombre_48-58" data-name="Degradado sin nombre 48" x1="95.87" y1="18.37" x2="113.21" y2="18.37" gradientTransform="translate(27.86 -55.02) rotate(33.78)" xlink:href="#Degradado_sin_nombre_48"/>
    <linearGradient id="Degradado_sin_nombre_48-59" data-name="Degradado sin nombre 48" x1="128.82" y1="77.46" x2="135.2" y2="77.46" xlink:href="#Degradado_sin_nombre_48"/>
    <linearGradient id="Degradado_sin_nombre_48-60" data-name="Degradado sin nombre 48" x1="4.7" y1="168.75" x2="139.75" y2="168.75" xlink:href="#Degradado_sin_nombre_48"/>
    <linearGradient id="Degradado_sin_nombre_48-61" data-name="Degradado sin nombre 48" x1="0" y1="175.13" x2="10.61" y2="175.13" xlink:href="#Degradado_sin_nombre_48"/>
    <linearGradient id="Degradado_sin_nombre_48-62" data-name="Degradado sin nombre 48" x1="131.34" y1="169.63" x2="152.97" y2="169.63" xlink:href="#Degradado_sin_nombre_48"/>
    <linearGradient id="Degradado_sin_nombre_48-63" data-name="Degradado sin nombre 48" x1="104.83" y1="168.75" x2="114.35" y2="168.75" xlink:href="#Degradado_sin_nombre_48"/>
    <linearGradient id="Degradado_sin_nombre_48-64" data-name="Degradado sin nombre 48" x1="73.43" y1="160.64" x2="85.02" y2="160.64" xlink:href="#Degradado_sin_nombre_48"/>
  </defs>
  <g id="Capa_1-2" data-name="Capa 1">
    <g>
      <g>
        <path class="cls-6" d="M99.62,141.45l-39.93-.02-25.43-10.44-8.54-24.3-16.57-11.76.02-39.41,11.24-27.03,25.64-9.35,11.5-14.44,39.94.02,24.62,11.51.03.08,8.25,21.29,15.5,14.17-.02,39.12-10.71,26.5-.1.03-23.14,7.71-12.29,16.3ZM59.82,141.01h39.59l12.24-16.24.06-.02,23.11-7.7,10.62-26.27v-38.8l-15.44-14.11-.02-.05-8.24-21.26-24.42-11.41h-39.59l-11.44,14.37-.06.02-25.52,9.3-11.15,26.81v39.05l16.5,11.71.02.07,8.5,24.18,25.21,10.35Z"/>
        <path class="cls-56" d="M78.7,113.71l-.06-.02-25.65-8.28-.04-.04-8.57-8.3-.02-.05-7.5-20.34.02-.07,9.35-28.58.03-.03,8.31-9.38.06-.02,19.81-6.16.07.02,28.05,9.35.03.03,9.91,8.84.02.06,5.89,18.47-.02.06-8.28,28.59-.03.04-9.11,10.19-.06.02-22.2,5.62ZM53.22,105.03l25.5,8.23,22.01-5.57,8.99-10.05,8.24-28.43-5.83-18.28-9.79-8.73-27.9-9.3-19.61,6.1-8.2,9.26-9.3,28.42,7.43,20.15,8.46,8.2Z"/>
        <path class="cls-19" d="M84.23,133.06l-2.84-17.24-46.88,15.21-.13-.42,46.82-15.2-3.57-.92-33.69.18-.07-.09-17.75-23.42v16.86s-8.78-29.17-8.78-29.17l8.34,11.01v-22l-16.4-13.03,14.33-8.53-2.75-17.8.42-.1,5.35,16.1,10.35-6.16.85-.66-1-1.26,9.48-16.24,13.57.31,11.34-8.85,1.5,9.14,10.77.25,13.59-16.96-3.68,17.12,28.3-5.1.11.42-26.44,9.38,2.39,5.26,16.74-.49.05.02,14.75,6.84-3.05,10.54,13.82,18.15-19.81,5.48,25.45,19.93-25.71,16.08v2.71l-.02.05-6.84,13.13-3.04-.78-2.08,3.56-.08.02-23.71,6.65ZM81.78,115.57l2.79,16.93,23.15-6.49,1.93-3.3-27.88-7.14ZM110.33,122.44l2.59.66,6.65-12.78v-2.33l-1.22.76-8.02,13.69ZM77.67,114.07h.03s32.19,8.26,32.19,8.26l8.14-13.89,1.54-.97v-35.76l-.26-.2.26-.07v-1.85s6.2-21.43,6.2-21.43l-12.76-16.76-10.63,10.98-4.9-10.79-21.22.61,18.51-6.57-1.8-3.96-9.28-.21-9.39,11.72-1.96-11.98-12.32-.28-21.57,16.83,8.31,10.45-15.85,9.17,6.63,19.94-11.43-9.08v22.23s18.03,23.79,18.03,23.79l33.53-.18ZM120.01,72.06v35.14l24.95-15.61-24.95-19.53ZM18.46,81.07l7.22,24v-14.47l-7.22-9.53ZM26.11,67.67l10.55,8.38-6.14-18.46-2.82,1.63-1.73-.45.14.9v8ZM120.01,69.69v1.64l19.33-5.35-13.23-17.38-6.09,21.09ZM10.05,54.9l15.63,12.42v-7.63l-.16-1.05-15.13-3.95-.33.2ZM25.9,58.3l1.74.45,2.74-1.58-3.99-12-2.31,1.37,1.82,11.76ZM10.91,54.39l14.53,3.79-1.76-11.4-12.77,7.61ZM26.78,44.94l3.99,12.01,15.34-8.87-8-10.05-.88.68-10.46,6.23ZM113.36,31.14l12.56,16.5,2.85-9.87-14.36-6.66-1.05.03ZM21.69,31.01l2.33,15.06,2.24-1.33-4.56-13.73ZM97.95,31.59l4.56,10.03,10.12-10.46-14.68.43ZM37.37,36.38l.82,1.03,21.15-16.5-12.78-.29-9.19,15.76ZM72.79,21.22l1.79,10.93,8.57-10.69-10.36-.24ZM94.96,26.04l-15.93,5.65,18.26-.53-2.33-5.12ZM93.43,21.63l1.76,3.87,23.95-8.5-25.7,4.63ZM84.04,21.04l8.9.2,3.32-15.46-12.22,15.25ZM60.57,20.5l11.7.27-1.36-8.33-10.34,8.06Z"/>
        <circle class="cls-23" cx="37.1" cy="75.61" r="6.27"/>
        <circle class="cls-41" cx="25.77" cy="109.22" r="6.27"/>
        <circle class="cls-25" cx="17.5" cy="80.66" r="4.43"/>
        <circle class="cls-7" cx="43.37" cy="114.96" r="4.43"/>
        <circle class="cls-37" cx="59.77" cy="141.23" r="3.2"/>
        <circle class="cls-29" cx="79.96" cy="114.11" r="6.27"/>
        <circle class="cls-40" cx="113.03" cy="125.66" r="6.27"/>
        <circle class="cls-63" cx="85.39" cy="133.3" r="4.62"/>
        <circle class="cls-9" cx="118.73" cy="108.59" r="4.62"/>
        <circle class="cls-62" cx="146.18" cy="91.48" r="3.27"/>
        <circle class="cls-12" cx="141.1" cy="79.61" r="3.27"/>
        <circle class="cls-5" cx="25.77" cy="58.91" r="3.27"/>
        <circle class="cls-21" cx="133.82" cy="26.4" r="3.27"/>
        <circle class="cls-52" cx="144.29" cy="37.65" r="2.31"/>
        <circle class="cls-57" cx="43.37" cy="7.85" r="2.31"/>
        <circle class="cls-49" cx="13.07" cy="109.22" r="2.31"/>
        <circle class="cls-46" cx="113.17" cy="140.18" r="2.31"/>
        <circle class="cls-34" cx="106.76" cy="143.85" r="3.15"/>
        <circle class="cls-44" cx="30.83" cy="18.37" r="3.15"/>
        <circle class="cls-11" cx="124.97" cy="129.63" r="3.15"/>
        <circle class="cls-54" cx="130.55" cy="88.21" r="3.27"/>
        <circle class="cls-31" cx="101.04" cy="108.06" r="2.73"/>
        <circle class="cls-20" cx="109.92" cy="97.75" r="2.73"/>
        <circle class="cls-35" cx="135.81" cy="118.23" r="3.27"/>
        <circle class="cls-43" cx="84.02" cy="10.57" r="2.73"/>
        <circle class="cls-36" cx="6.24" cy="102.95" r="2.73"/>
        <circle class="cls-13" cx="92.59" cy="21.46" r="2.73"/>
        <circle class="cls-51" cx="146.18" cy="52.91" r="2.73"/>
        <circle class="cls-17" cx="102.6" cy="41.66" r="2.73"/>
        <circle class="cls-16" cx="113.03" cy="51.23" r="2.73"/>
        <circle class="cls-26" cx="121.4" cy="16.4" r="2.73"/>
        <circle class="cls-18" cx="48.82" cy="2.73" r="2.73"/>
        <circle class="cls-39" cx="20.03" cy="30.17" r="2.73"/>
        <circle class="cls-30" cx="14.57" cy="67.81" r="2.73"/>
        <circle class="cls-15" cx="9.36" cy="94.82" r="2.73"/>
        <circle class="cls-33" cx="43.37" cy="96.2" r="2.73"/>
        <circle class="cls-14" cx="53.85" cy="105.86" r="2.73"/>
        <circle class="cls-58" cx="62.97" cy="125.76" r="2.73"/>
        <circle class="cls-28" cx="71.35" cy="136.63" r="2.73"/>
        <circle class="cls-27" cx="99.52" cy="140.7" r="2.73"/>
        <circle class="cls-64" cx="46.09" cy="48.79" r="2.73"/>
        <circle class="cls-8" cx="55.03" cy="38.93" r="2.73"/>
        <circle class="cls-61" cx="21.93" cy="120.37" r="3.84"/>
        <circle class="cls-47" cx="119.23" cy="71.63" r="6.27"/>
        <circle class="cls-60" cx="75.66" cy="32.67" r="6.27"/>
        <circle class="cls-48" cx="129.54" cy="38.93" r="6.27"/>
        <circle class="cls-53" cx="137.83" cy="66.81" r="4.27"/>
        <circle class="cls-1" cx="43.37" cy="21.46" r="6.27"/>
        <circle class="cls-42" cx="36.35" cy="38.93" r="4.31"/>
        <circle class="cls-59" cx="9.67" cy="54.94" r="3.42"/>
        <circle class="cls-24" cx="70.27" cy="13.86" r="4.52"/>
        <circle class="cls-3" cx="96.05" cy="5.68" r="3.46"/>
        <circle class="cls-50" cx="57.75" cy="5.68" r="3.46"/>
        <circle class="cls-22" cx="112.96" cy="32.67" r="4.43"/>
        <rect class="cls-38" x="104.32" y="3.1" width=".44" height="30.54" transform="translate(7.43 61.22) rotate(-33.78)"/>
        <polygon class="cls-10" points="134.78 117.27 131.57 104.43 128.82 37.66 129.25 37.64 132.01 104.39 135.2 117.17 134.78 117.27"/>
      </g>
      <g>
        <path class="cls-2" d="M5.31,175.74c-.29,0-.54-.21-.59-.5-.06-.33.16-.64.49-.7l74.51-12.76c.07-.01.15,0,.23,0l29.71,6.37h29.49c.33,0,.6.27.6.6s-.27.6-.6.6h-29.56s-.08,0-.13-.01l-29.66-6.36-74.39,12.75s-.07,0-.1,0Z"/>
        <circle class="cls-32" cx="5.31" cy="175.13" r="5.31"/>
        <circle class="cls-4" cx="142.16" cy="169.63" r="10.81"/>
        <circle class="cls-45" cx="109.59" cy="168.75" r="4.76"/>
        <circle class="cls-55" cx="79.22" cy="160.64" r="5.79"/>
      </g>
    </g>
  </g>
</svg>